<?xml version="1.0" encoding="UTF-8"?>
<!DOCTYPE svg PUBLIC "-//W3C//DTD SVG 1.1//EN" "http://www.w3.org/Graphics/SVG/1.1/DTD/svg11.dtd">
<svg xmlns="http://www.w3.org/2000/svg" version="1.1" width="204px" height="192px" style="shape-rendering:geometricPrecision; text-rendering:geometricPrecision; image-rendering:optimizeQuality; fill-rule:evenodd; clip-rule:evenodd" xmlns:xlink="http://www.w3.org/1999/xlink">
<g><path style="opacity:1" fill="#fefefe" d="M -0.5,-0.5 C 67.5,-0.5 135.5,-0.5 203.5,-0.5C 203.5,63.5 203.5,127.5 203.5,191.5C 135.5,191.5 67.5,191.5 -0.5,191.5C -0.5,127.5 -0.5,63.5 -0.5,-0.5 Z"/></g>
<g><path style="opacity:1" fill="#ada9d7" d="M 121.5,76.5 C 122.946,75.3871 124.613,75.2204 126.5,76C 128.37,78.0396 130.37,79.8729 132.5,81.5C 132.5,84.1667 132.5,86.8333 132.5,89.5C 133.5,89.5 134.5,89.5 135.5,89.5C 135.198,86.9407 135.532,84.6074 136.5,82.5C 136.5,85.1667 136.5,87.8333 136.5,90.5C 134.833,90.5 133.167,90.5 131.5,90.5C 131.66,88.8008 131.494,87.1341 131,85.5C 130.252,87.751 128.752,89.0844 126.5,89.5C 126.5,89.1667 126.5,88.8333 126.5,88.5C 127.833,87.5 127.833,86.5 126.5,85.5C 127.496,85.4142 128.329,85.7476 129,86.5C 129.495,84.5273 129.662,82.5273 129.5,80.5C 128.5,80.5 127.5,80.5 126.5,80.5C 127.969,78.8947 127.635,78.3947 125.5,79C 124.748,79.6708 124.414,80.5041 124.5,81.5C 123.833,81.1667 123.167,80.8333 122.5,80.5C 122.768,78.901 122.434,77.5676 121.5,76.5 Z"/></g>
<g><path style="opacity:1" fill="#3c33b3" d="M 58.5,77.5 C 59.8333,77.5 61.1667,77.5 62.5,77.5C 62.5,78.5 62.5,79.5 62.5,80.5C 61.1667,80.5 59.8333,80.5 58.5,80.5C 58.5,79.5 58.5,78.5 58.5,77.5 Z"/></g>
<g><path style="opacity:1" fill="#3931b1" d="M 66.5,77.5 C 67.8333,77.5 69.1667,77.5 70.5,77.5C 70.5,78.5 70.5,79.5 70.5,80.5C 69.1667,80.5 67.8333,80.5 66.5,80.5C 66.5,79.5 66.5,78.5 66.5,77.5 Z"/></g>
<g><path style="opacity:1" fill="#2e27af" d="M 72.5,77.5 C 75.1569,77.162 77.4902,77.8287 79.5,79.5C 80.8415,77.9951 82.5082,77.3285 84.5,77.5C 84.5,78.5 84.5,79.5 84.5,80.5C 80.5,80.5 76.5,80.5 72.5,80.5C 72.5,79.5 72.5,78.5 72.5,77.5 Z"/></g>
<g><path style="opacity:1" fill="#352db3" d="M 86.5,77.5 C 87.8333,77.5 89.1667,77.5 90.5,77.5C 90.5,78.5 90.5,79.5 90.5,80.5C 89.1667,80.5 87.8333,80.5 86.5,80.5C 86.5,79.5 86.5,78.5 86.5,77.5 Z"/></g>
<g><path style="opacity:1" fill="#3028b1" d="M 92.5,77.5 C 96.1667,77.5 99.8333,77.5 103.5,77.5C 103.5,78.5 103.5,79.5 103.5,80.5C 99.8333,80.5 96.1667,80.5 92.5,80.5C 92.5,79.5 92.5,78.5 92.5,77.5 Z"/></g>
<g><path style="opacity:1" fill="#352cb2" d="M 105.5,77.5 C 109.167,77.5 112.833,77.5 116.5,77.5C 116.5,78.5 116.5,79.5 116.5,80.5C 112.445,80.8242 108.445,80.4909 104.5,79.5C 104.863,78.8165 105.196,78.1499 105.5,77.5 Z"/></g>
<g><path style="opacity:1" fill="#4233ad" d="M 126.5,80.5 C 126.158,81.3382 125.492,81.6716 124.5,81.5C 124.414,80.5041 124.748,79.6708 125.5,79C 127.635,78.3947 127.969,78.8947 126.5,80.5 Z"/></g>
<g><path style="opacity:1" fill="#3028af" d="M 132.5,77.5 C 135.157,77.162 137.49,77.8287 139.5,79.5C 140.842,77.9951 142.508,77.3285 144.5,77.5C 144.5,78.5 144.5,79.5 144.5,80.5C 140.5,80.5 136.5,80.5 132.5,80.5C 132.5,79.5 132.5,78.5 132.5,77.5 Z"/></g>
<g><path style="opacity:1" fill="#261cae" d="M 70.5,81.5 C 70.5,84.5 70.5,87.5 70.5,90.5C 62.3413,92.6509 58.3413,89.6509 58.5,81.5C 59.8333,81.5 61.1667,81.5 62.5,81.5C 62.5,83.5 62.5,85.5 62.5,87.5C 63.8333,87.5 65.1667,87.5 66.5,87.5C 66.5,85.5 66.5,83.5 66.5,81.5C 67.8333,81.5 69.1667,81.5 70.5,81.5 Z"/></g>
<g><path style="opacity:1" fill="#251aad" d="M 72.5,81.5 C 76.5,81.5 80.5,81.5 84.5,81.5C 84.5524,85.1981 84.8857,88.8648 85.5,92.5C 84.2209,91.032 82.5542,90.3653 80.5,90.5C 81.0209,87.3637 80.0209,85.0304 77.5,83.5C 77.44,82.9569 77.1067,82.6236 76.5,82.5C 75.52,85.0865 75.1866,87.7531 75.5,90.5C 74.5,90.5 73.5,90.5 72.5,90.5C 72.5,87.5 72.5,84.5 72.5,81.5 Z"/></g>
<g><path style="opacity:1" fill="#2318ad" d="M 90.5,81.5 C 90.5,84.5 90.5,87.5 90.5,90.5C 89.1667,90.5 87.8333,90.5 86.5,90.5C 86.5,87.5 86.5,84.5 86.5,81.5C 87.8333,81.5 89.1667,81.5 90.5,81.5 Z"/></g>
<g><path style="opacity:1" fill="#0502ab" d="M 92.5,81.5 C 93.8333,81.5 95.1667,81.5 96.5,81.5C 96.5,83.1667 96.5,84.8333 96.5,86.5C 104.542,88.3018 104.208,89.3018 95.5,89.5C 94.391,89.4431 93.391,89.1098 92.5,88.5C 92.5,86.1667 92.5,83.8333 92.5,81.5 Z"/></g>
<g><path style="opacity:1" fill="#2719ae" d="M 109.5,86.5 C 111.369,87.1646 113.369,87.8313 115.5,88.5C 112.914,89.48 110.247,89.8134 107.5,89.5C 104.828,87.6086 103.828,84.9419 104.5,81.5C 106.167,81.5 107.833,81.5 109.5,81.5C 109.5,83.1667 109.5,84.8333 109.5,86.5 Z"/></g>
<g><path style="opacity:1" fill="#1810aa" d="M 122.5,80.5 C 123.167,80.8333 123.833,81.1667 124.5,81.5C 127.049,82.8313 126.716,83.8313 123.5,84.5C 122.566,83.4324 122.232,82.099 122.5,80.5 Z"/></g>
<g><path style="opacity:1" fill="#a4a4d6" d="M 70.5,81.5 C 71.1667,81.5 71.8333,81.5 72.5,81.5C 72.5,84.5 72.5,87.5 72.5,90.5C 71.8333,90.5 71.1667,90.5 70.5,90.5C 70.5,87.5 70.5,84.5 70.5,81.5 Z"/></g>
<g><path style="opacity:1" fill="#8986c9" d="M 77.5,83.5 C 76.8333,85.8333 76.1667,88.1667 75.5,90.5C 75.1866,87.7531 75.52,85.0865 76.5,82.5C 77.1067,82.6236 77.44,82.9569 77.5,83.5 Z"/></g>
<g><path style="opacity:1" fill="#b4b0db" d="M 90.5,81.5 C 91.1667,81.5 91.8333,81.5 92.5,81.5C 92.5,83.8333 92.5,86.1667 92.5,88.5C 91.6618,88.8417 91.3284,89.5084 91.5,90.5C 91.1667,90.5 90.8333,90.5 90.5,90.5C 90.5,87.5 90.5,84.5 90.5,81.5 Z"/></g>
<g><path style="opacity:1" fill="#190fab" d="M 132.5,81.5 C 136.5,81.5 140.5,81.5 144.5,81.5C 144.5,84.5 144.5,87.5 144.5,90.5C 143.167,90.5 141.833,90.5 140.5,90.5C 141.049,86.7739 139.715,84.1073 136.5,82.5C 135.532,84.6074 135.198,86.9407 135.5,89.5C 134.5,89.5 133.5,89.5 132.5,89.5C 132.5,86.8333 132.5,84.1667 132.5,81.5 Z"/></g>
<g><path style="opacity:1" fill="#d0cae7" d="M 126.5,80.5 C 127.5,80.5 128.5,80.5 129.5,80.5C 129.662,82.5273 129.495,84.5273 129,86.5C 128.329,85.7476 127.496,85.4142 126.5,85.5C 124.443,85.9567 124.443,86.9567 126.5,88.5C 126.5,88.8333 126.5,89.1667 126.5,89.5C 124.833,90.8333 123.167,90.8333 121.5,89.5C 121.392,87.4862 122.058,85.8195 123.5,84.5C 126.716,83.8313 127.049,82.8313 124.5,81.5C 125.492,81.6716 126.158,81.3382 126.5,80.5 Z"/></g>
<g><path style="opacity:1" fill="#6054ba" d="M 121.5,76.5 C 122.434,77.5676 122.768,78.901 122.5,80.5C 122.232,82.099 122.566,83.4324 123.5,84.5C 122.058,85.8195 121.392,87.4862 121.5,89.5C 119.589,88.925 117.922,87.925 116.5,86.5C 116.492,80.7924 116.992,80.4591 118,85.5C 118.893,86.7112 119.726,86.7112 120.5,85.5C 118.96,84.4679 118.46,83.1346 119,81.5C 120.813,82.6091 121.646,81.9424 121.5,79.5C 117.94,79.2825 117.94,78.2825 121.5,76.5 Z"/></g>
<g><path style="opacity:1" fill="#2b23ab" d="M 126.5,85.5 C 127.833,86.5 127.833,87.5 126.5,88.5C 124.443,86.9567 124.443,85.9567 126.5,85.5 Z"/></g>
<g><path style="opacity:1" fill="#564db9" d="M 96.5,86.5 C 98.8333,86.5 101.167,86.5 103.5,86.5C 103.5,87.8333 103.5,89.1667 103.5,90.5C 100.615,90.8064 97.9479,90.4731 95.5,89.5C 104.208,89.3018 104.542,88.3018 96.5,86.5 Z"/></g>
<g><path style="opacity:1" fill="#615abc" d="M 109.5,86.5 C 111.833,86.5 114.167,86.5 116.5,86.5C 116.5,87.8333 116.5,89.1667 116.5,90.5C 113.287,90.81 110.287,90.4767 107.5,89.5C 110.247,89.8134 112.914,89.48 115.5,88.5C 113.369,87.8313 111.369,87.1646 109.5,86.5 Z"/></g>
<g><path style="opacity:1" fill="#4639b1" d="M 90.5,90.5 C 90.8333,90.5 91.1667,90.5 91.5,90.5C 93.9726,90.0882 95.3059,91.0882 95.5,93.5C 93.5454,92.6765 91.5454,92.5099 89.5,93C 88.6634,94.0113 88.33,95.1779 88.5,96.5C 89.7563,95.0594 91.7563,94.5594 94.5,95C 93.4178,96.3297 92.7512,97.8297 92.5,99.5C 90.5856,98.8153 88.5856,98.3153 86.5,98C 85.5939,96.3005 85.2606,94.4672 85.5,92.5C 87.5529,92.5979 89.2196,91.9313 90.5,90.5 Z"/></g>
<g><path style="opacity:1" fill="#4a3cb3" d="M 109.5,95.5 C 108.778,96.5511 107.778,97.2178 106.5,97.5C 105.798,96.8843 104.798,96.8843 103.5,97.5C 104.562,96.4246 104.562,95.4246 103.5,94.5C 102.281,95.2634 101.281,96.2634 100.5,97.5C 99.3573,93.8752 98.0239,93.7085 96.5,97C 95.8333,97.6667 95.1667,97.6667 94.5,97C 95.305,95.8873 95.9717,94.7206 96.5,93.5C 99.2044,93.1769 102.038,92.8436 105,92.5C 106.261,92.7591 107.261,93.4258 108,94.5C 109.107,93.2881 109.607,93.6214 109.5,95.5 Z"/></g>
<g><path style="opacity:1" fill="#c3bfe3" d="M 95.5,93.5 C 95.8333,93.5 96.1667,93.5 96.5,93.5C 95.9717,94.7206 95.305,95.8873 94.5,97C 95.1667,97.6667 95.8333,97.6667 96.5,97C 98.0239,93.7085 99.3573,93.8752 100.5,97.5C 101.281,96.2634 102.281,95.2634 103.5,94.5C 104.562,95.4246 104.562,96.4246 103.5,97.5C 101.031,98.5686 98.6979,99.9019 96.5,101.5C 94.8295,101.332 93.4961,100.665 92.5,99.5C 92.7512,97.8297 93.4178,96.3297 94.5,95C 91.7563,94.5594 89.7563,95.0594 88.5,96.5C 88.33,95.1779 88.6634,94.0113 89.5,93C 91.5454,92.5099 93.5454,92.6765 95.5,93.5 Z"/></g>
<g><path style="opacity:1" fill="#2e25ad" d="M 121.5,93.5 C 121.443,94.609 121.11,95.609 120.5,96.5C 119.533,95.1938 118.199,94.5271 116.5,94.5C 116.285,96.1788 116.952,97.1788 118.5,97.5C 117.167,98.1667 115.833,98.8333 114.5,99.5C 113.406,94.2763 115.739,92.2763 121.5,93.5 Z"/></g>
<g><path style="opacity:1" fill="#9186cd" d="M 120.5,96.5 C 120.158,97.3382 119.492,97.6716 118.5,97.5C 116.952,97.1788 116.285,96.1788 116.5,94.5C 118.199,94.5271 119.533,95.1938 120.5,96.5 Z"/></g>
<g><path style="opacity:1" fill="#6f65be" d="M 121.5,93.5 C 115.739,92.2763 113.406,94.2763 114.5,99.5C 114.44,100.043 114.107,100.376 113.5,100.5C 111.24,99.0882 108.907,98.0882 106.5,97.5C 107.778,97.2178 108.778,96.5511 109.5,95.5C 109.56,96.0431 109.893,96.3764 110.5,96.5C 111.668,93.6674 113.835,92.334 117,92.5C 118.707,92.5085 120.207,92.8418 121.5,93.5 Z"/></g>
</svg>
